# xmcd
#
# Track frame offsets:
#	150
#	10703
#	25077
#	40526
#	52088
#	65129
#
# Disc length: 1099 seconds
#
# Revision: 1
# Processed by: cddbd v1.5.2PL0 Copyright (c) Steve Scherf et al.
# Submitted via: audiograbber 1.83.01
#
DISCID=45044906
DTITLE=Jason Wray Stevensson - Was Hael
DYEAR=2012
DGENRE=Country Rock
TTITLE0=Maybe I'll Live
TTITLE1=Too Far Out for Far Too Long
TTITLE2=Starshine
TTITLE3=Never Were
TTITLE4=Ruined
TTITLE5=Charmed and Dangerous
EXTD=www.reverbnation.com/jasonwraystevensson\njwstevensson@googlemail.com
EXTT0=
EXTT1=
EXTT2=
EXTT3=
EXTT4=
EXTT5=
PLAYORDER=
